Note: This torrent contains 2 DVD ISOs and 2 MP4 Videos of the concert so I suggest you select whichever you prefer.


BBC Proms 2011, Number 74 - Last Night, Part 1
BBC2, 10 August

Sir Peter Maxwell Davies:
Musica benevolens (c4 mins)
Musicians Benevolent Fund commission:
World Premiere

Bartók:
The Miraculous Mandarin - suite (20 mins)

Wagner:
Götterdämmerung - Immolation Scene (18 mins)
Susan Bullock: soprano

Liszt:
Piano Concerto No. 1 in E flat major (19 mins)
Lang Lang: piano

BBC Symphony Chorus
BBC Symphony Orchestra
Edward Gardner: conductor

Commentary in English
Some fixed English subtitles

***********************************************

Format: DVD ISO PAL
Runtime: 1:30

Video
ID                               : 224 (0xE0)
Format                           : MPEG Video
Format version                   : Version 2
Format profile                   : Main@Main
Format settings, BVOP            : Yes
Format settings, Matrix          : Default
Bit rate mode                    : Variable
Bit rate                         : 3 316 Kbps
Nominal bit rate                 : 9 544 Kbps
Width                            : 720 pixels
Height                           : 576 pixels
Display aspect ratio             : 16:9
Frame rate                       : 25.000 fps
Standard                         : PAL
Color space                      : YUV
Chroma subsampling               : 4:2:0
Bit depth                        : 8 bits
Scan type                        : Interlaced
Scan order                       : Top Field First
Compression mode                 : Lossy
Bits/(Pixel*Frame)               : 0.320

Audio
ID                               : 192 (0xC0)
Format                           : MPEG Audio
Format version                   : Version 1
Format profile                   : Layer 2
Bit rate mode                    : Constant
Bit rate                         : 256 Kbps
Channel(s)                       : 2 channels
Sampling rate                    : 48.0 KHz
Compression mode                 : Lossy

**********************************************

Format: MP4 720p
Runtime: 1:30

Video
ID                               : 1
Format                           : AVC
Format/Info                      : Advanced Video Codec
Format profile                   : High@L4.1
Format settings, CABAC           : Yes
Format settings, ReFrames        : 6 frames
Codec ID                         : avc1
Codec ID/Info                    : Advanced Video Coding
Duration                         : 1h 30mn
Bit rate mode                    : Variable
Bit rate                         : 2 635 Kbps
Maximum bit rate                 : 3 500 Kbps
Width                            : 1 280 pixels
Height                           : 720 pixels
Display aspect ratio             : 16:9
Frame rate mode                  : Constant
Frame rate                       : 25.000 fps
Standard                         : PAL
Color space                      : YUV
Chroma subsampling               : 4:2:0
Bit depth                        : 8 bits
Scan type                        : Progressive
Bits/(Pixel*Frame)               : 0.114
Stream size                      : 1.67 GiB (96%)

Audio
ID                               : 2
Format                           : AAC
Format/Info                      : Advanced Audio Codec
Format profile                   : HE-AAC / LC
Codec ID                         : 40
Duration                         : 1h 30mn
Bit rate mode                    : Variable
Bit rate                         : 96.0 Kbps
Channel(s)                       : 2 channels
Channel positions                : Front: L R
Sampling rate                    : 48.0 KHz / 24.0 KHz
Compression mode                 : Lossy
Stream size                      : 61.4 MiB (3%)

**********************************************************

BBC Proms 2011, Number 74, Last Night, Part 2
BBC1, 10 August

Chopin:
Grande Polonaise brillante, Op. 22 (9 mins)
Encore - Liszt: Consolation No. 3

Grainger:
Mo nighean dubh (My Dark-Haired Maiden) (4 mins)

Britten:
The Young Person's Guide to the Orchestra (20 mins)
Narrated by Jenny Agutter

Rodgers:
The Sound of Music - 'Climb ev'ry mountain' (arr.Robert Russell Bennett) (4 mins)

Rodgers:
Carousel - 'You'll never walk alone' (arr. Jackson) (3 mins)

Elgar:
Pomp and Circumstance March No. 1 in D major ('Land of Hope and Glory') (8 mins)

Arne:
Rule Britannia (8 mins)

Parry:
Jerusalem (orch. Elgar) (4 mins)

Traditional:
The National Anthem (2 mins)

Lang Lang: piano
Susan Bullock: soprano
BBC Symphony Chorus
BBC Symphony Orchestra
Edward Gardner: conductor

Commentary in English
Some microphone failure during conductor's speech

************************************************************

Format: DVD ISO PAL
Runtime: 1:42

Video
ID                               : 224 (0xE0)
Format                           : MPEG Video
Format version                   : Version 2
Format profile                   : Main@Main
Format settings, BVOP            : Yes
Format settings, Matrix          : Default
Bit rate mode                    : Variable
Bit rate                         : 4 017 Kbps
Nominal bit rate                 : 9 544 Kbps
Width                            : 720 pixels
Height                           : 576 pixels
Display aspect ratio             : 16:9
Frame rate                       : 25.000 fps
Standard                         : PAL
Color space                      : YUV
Chroma subsampling               : 4:2:0
Bit depth                        : 8 bits
Scan type                        : Interlaced
Scan order                       : Top Field First
Compression mode                 : Lossy
Bits/(Pixel*Frame)               : 0.387

Audio
ID                               : 192 (0xC0)
Format                           : MPEG Audio
Format version                   : Version 1
Format profile                   : Layer 2
Bit rate mode                    : Constant
Bit rate                         : 256 Kbps
Channel(s)                       : 2 channels
Sampling rate                    : 48.0 KHz
Compression mode                 : Lossy

**********************************************

Format: MP4 720p
Runtime: 1:42

Video
ID                               : 1
Format                           : AVC
Format/Info                      : Advanced Video Codec
Format profile                   : High@L4.1
Format settings, CABAC           : Yes
Format settings, ReFrames        : 6 frames
Codec ID                         : avc1
Codec ID/Info                    : Advanced Video Coding
Duration                         : 1h 41mn
Bit rate mode                    : Variable
Bit rate                         : 2 555 Kbps
Maximum bit rate                 : 3 500 Kbps
Width                            : 1 280 pixels
Height                           : 720 pixels
Display aspect ratio             : 16:9
Frame rate mode                  : Constant
Frame rate                       : 25.000 fps
Standard                         : PAL
Color space                      : YUV
Chroma subsampling               : 4:2:0
Bit depth                        : 8 bits
Scan type                        : Progressive
Bits/(Pixel*Frame)               : 0.111
Stream size                      : 1.81 GiB (96%)

Audio
ID                               : 2
Format                           : AAC
Format/Info                      : Advanced Audio Codec
Format profile                   : HE-AAC / LC
Codec ID                         : 40
Duration                         : 1h 41mn
Bit rate mode                    : Variable
Bit rate                         : 96.0 Kbps
Channel(s)                       : 2 channels
Channel positions                : Front: L R
Sampling rate                    : 48.0 KHz / 24.0 KHz
Compression mode                 : Lossy
Stream size                      : 68.8 MiB (4%)
